<svg width="141" height="34" viewBox="0 0 141 34" fill="none" xmlns="http://www.w3.org/2000/svg">
<path d="M2.49331 28.0266C3.87032 28.0266 4.98661 29.1469 4.98661 30.5289C4.98661 31.911 3.87032 33.0313 2.49331 33.0313C1.11629 33.0313 1.28549e-06 31.911 1.22508e-06 30.5289C1.16467e-06 29.1469 1.11629 28.0266 2.49331 28.0266Z" fill="#000080"/>
<path d="M2.49331 7.00664C3.87032 7.00664 4.98661 8.12699 4.98661 9.50901C4.98661 10.891 3.87032 12.0114 2.49331 12.0114C1.11629 12.0114 3.6668e-07 10.891 3.0627e-07 9.50901C2.4586e-07 8.12699 1.11629 7.00664 2.49331 7.00664Z" fill="#000080"/>
<path d="M8.87617 10.4099C10.2532 10.4099 11.3695 11.5302 11.3695 12.9122C11.3695 14.2943 10.2532 15.4146 8.87617 15.4146C7.49915 15.4146 6.38286 14.2943 6.38286 12.9122C6.38286 11.5302 7.49915 10.4099 8.87617 10.4099Z" fill="#004A80"/>
<path d="M15.259 7.00664C16.636 7.00664 17.7523 8.12699 17.7523 9.50901C17.7523 10.891 16.636 12.0114 15.259 12.0114C13.882 12.0114 12.7657 10.891 12.7657 9.50901C12.7657 8.12699 13.882 7.00664 15.259 7.00664Z" fill="#008080"/>
<path d="M8.87617 24.4232C10.2532 24.4232 11.3695 25.5435 11.3695 26.9255C11.3695 28.3075 10.2532 29.4279 8.87617 29.4279C7.49915 29.4279 6.38286 28.3075 6.38286 26.9255C6.38286 25.5435 7.49915 24.4232 8.87617 24.4232Z" fill="#004A80"/>
<path d="M15.259 21.0199C16.636 21.0199 17.7523 22.1403 17.7523 23.5223C17.7523 24.9043 16.636 26.0247 15.259 26.0247C13.882 26.0247 12.7657 24.9043 12.7657 23.5223C12.7657 22.1403 13.882 21.0199 15.259 21.0199Z" fill="#008080"/>
<path d="M21.6419 17.5166C23.0189 17.5166 24.1352 18.637 24.1352 20.019C24.1352 21.401 23.0189 22.5214 21.6419 22.5214C20.2649 22.5214 19.1486 21.401 19.1486 20.019C19.1486 18.637 20.2649 17.5166 21.6419 17.5166Z" fill="#00B680"/>
<path d="M2.49331 21.0199C3.87032 21.0199 4.98661 22.1403 4.98661 23.5223C4.98661 24.9043 3.87032 26.0247 2.49331 26.0247C1.11629 26.0247 9.7922e-07 24.9043 9.1881e-07 23.5223C8.584e-07 22.1403 1.11629 21.0199 2.49331 21.0199Z" fill="#000080"/>
<path d="M2.49331 0C3.87032 -6.01912e-08 4.98661 1.12035 4.98661 2.50237C4.98661 3.8844 3.87032 5.00474 2.49331 5.00474C1.11629 5.00474 6.04102e-08 3.8844 0 2.50237C-6.04101e-08 1.12035 1.11629 6.01912e-08 2.49331 0Z" fill="#000080"/>
<path d="M8.87617 3.40323C10.2532 3.40323 11.3695 4.52358 11.3695 5.9056C11.3695 7.28762 10.2532 8.40797 8.87617 8.40797C7.49915 8.40797 6.38286 7.28762 6.38286 5.9056C6.38286 4.52358 7.49915 3.40323 8.87617 3.40323Z" fill="#004A80"/>
<path d="M8.87617 17.4165C10.2532 17.4165 11.3695 18.5369 11.3695 19.9189C11.3695 21.3009 10.2532 22.4213 8.87617 22.4213C7.49915 22.4213 6.38286 21.3009 6.38286 19.9189C6.38286 18.5369 7.49915 17.4165 8.87617 17.4165Z" fill="#004A80"/>
<path d="M15.259 14.0133C16.636 14.0133 17.7523 15.1336 17.7523 16.5157C17.7523 17.8977 16.636 19.018 15.259 19.018C13.882 19.018 12.7657 17.8977 12.7657 16.5157C12.7657 15.1336 13.882 14.0133 15.259 14.0133Z" fill="#008080"/>
<path d="M21.6419 10.51C23.0189 10.51 24.1352 11.6303 24.1352 13.0123C24.1352 14.3944 23.0189 15.5147 21.6419 15.5147C20.2649 15.5147 19.1486 14.3944 19.1486 13.0123C19.1486 11.6303 20.2649 10.51 21.6419 10.51Z" fill="#00B680"/>
<path d="M28.0248 13.9132C29.4018 13.9132 30.5181 15.0335 30.5181 16.4156C30.5181 17.7976 29.4018 18.9179 28.0248 18.9179C26.6477 18.9179 25.5315 17.7976 25.5315 16.4156C25.5315 15.0335 26.6477 13.9132 28.0248 13.9132Z" fill="#00EC80"/>
<path d="M41.606 2.82365C46.0832 13.2518 49.1986 20.5179 50.9522 24.6219C50.9522 24.6033 50.9895 24.6779 51.0641 24.8458C51.176 25.1256 51.3066 25.1256 51.4559 24.8458L51.5118 24.6779L60.8859 2.82365C61.3336 1.77897 62.1171 1.25663 63.2364 1.25663H63.2924C64.2065 1.25663 64.9154 1.63906 65.4191 2.40391C65.9228 3.16877 65.9974 3.97093 65.6429 4.8104L55.2335 29.0991C54.5246 30.9087 53.2001 31.8134 51.26 31.8134C49.3012 31.8134 47.9674 30.9087 47.2585 29.0991L36.849 4.8104C36.4946 3.97093 36.5692 3.16877 37.0729 2.40391C37.5766 1.63906 38.2855 1.25663 39.1996 1.25663H39.2835C40.4028 1.25663 41.177 1.77897 41.606 2.82365Z" fill="#999999"/>
<path d="M72.9463 10.5916C73.6552 10.5916 74.2522 10.8434 74.7372 11.3471C75.2409 11.8508 75.4927 12.4571 75.4927 13.1659V29.267C75.4927 29.9759 75.2409 30.5729 74.7372 31.0579C74.2522 31.5616 73.6552 31.8134 72.9463 31.8134H72.8904C72.1815 31.8134 71.5752 31.5616 71.0715 31.0579C70.5678 30.5729 70.316 29.9759 70.316 29.267V13.1659C70.316 12.4571 70.5678 11.8508 71.0715 11.3471C71.5752 10.8434 72.1815 10.5916 72.8904 10.5916H72.9463ZM72.9184 7.42913C72.0602 7.42913 71.3327 7.13065 70.7357 6.53369C70.1388 5.93673 69.8403 5.20919 69.8403 4.35106C69.8403 3.51159 70.1388 2.79338 70.7357 2.19642C71.3327 1.59946 72.0602 1.30098 72.9184 1.30098C73.7578 1.30098 74.476 1.59946 75.073 2.19642C75.6886 2.79338 75.9964 3.51159 75.9964 4.35106C75.9964 5.20919 75.6886 5.93673 75.073 6.53369C74.476 7.13065 73.7578 7.42913 72.9184 7.42913Z" fill="#999999"/>
<path d="M84.9228 2.82365C89.4 13.2518 92.5154 20.5179 94.2689 24.6219C94.2689 24.6033 94.3062 24.6779 94.3809 24.8458C94.4928 25.1256 94.6234 25.1256 94.7726 24.8458L94.8286 24.6779L104.203 2.82365C104.65 1.77897 105.434 1.25663 106.553 1.25663H106.609C107.523 1.25663 108.232 1.63906 108.736 2.40391C109.24 3.16877 109.314 3.97093 108.96 4.8104L98.5503 29.0991C97.8414 30.9087 96.5169 31.8134 94.5767 31.8134C92.618 31.8134 91.2841 30.9087 90.5753 29.0991L80.1658 4.8104C79.8114 3.97093 79.886 3.16877 80.3897 2.40391C80.8933 1.63906 81.6022 1.25663 82.5163 1.25663H82.6003C83.7196 1.25663 84.4938 1.77897 84.9228 2.82365Z" fill="#999999"/>
<path d="M125.722 1.25663C129.938 1.25663 133.538 2.74903 136.523 5.73382C139.508 8.71861 141 12.319 141 16.535V29.267C141 29.9759 140.748 30.5729 140.244 31.0579C139.741 31.5616 139.144 31.8134 138.454 31.8134H138.37C137.679 31.8134 137.082 31.5616 136.579 31.0579C136.075 30.5729 135.823 29.9759 135.823 29.267V27.9798C132.932 30.5356 129.565 31.8134 125.722 31.8134C121.506 31.8134 117.905 30.321 114.92 27.3362C111.936 24.3514 110.443 20.751 110.443 16.535C110.443 12.319 111.936 8.71861 114.92 5.73382C117.905 2.74903 121.506 1.25663 125.722 1.25663ZM125.722 6.43338C122.923 6.43338 120.536 7.42209 118.558 9.39952C116.599 11.3769 115.62 13.7554 115.62 16.535C115.62 19.3333 116.599 21.7211 118.558 23.6985C120.536 25.6573 122.923 26.6367 125.722 26.6367C128.52 26.6367 130.898 25.6573 132.857 23.6985C134.835 21.7211 135.823 19.3333 135.823 16.535C135.823 13.7554 134.835 11.3769 132.857 9.39952C130.898 7.42209 128.52 6.43338 125.722 6.43338Z" fill="#999999"/>
</svg>
